<?xml version="1.0" encoding="UTF-8" standalone="no"?>
<svg
   xmlns:dc="http://purl.org/dc/elements/1.1/"
   xmlns:cc="http://creativecommons.org/ns#"
   xmlns:rdf="http://www.w3.org/1999/02/22-rdf-syntax-ns#"
   xmlns:svg="http://www.w3.org/2000/svg"
   xmlns="http://www.w3.org/2000/svg"
   xmlns:xlink="http://www.w3.org/1999/xlink"
   xmlns:sodipodi="http://sodipodi.sourceforge.net/DTD/sodipodi-0.dtd"
   xmlns:inkscape="http://www.inkscape.org/namespaces/inkscape"
   width="210mm"
   height="297mm"
   viewBox="0 0 210 297"
   version="1.1"
   id="svg8"
   inkscape:version="1.0.1 (c497b03c, 2020-09-10)"
   sodipodi:docname="logo.svg">
  <defs
     id="defs859" />
  <sodipodi:namedview
     id="base"
     pagecolor="#ffffff"
     bordercolor="#666666"
     borderopacity="1.0"
     inkscape:pageopacity="0.0"
     inkscape:pageshadow="2"
     inkscape:zoom="1.4222991"
     inkscape:cx="377.95276"
     inkscape:cy="566.92913"
     inkscape:document-units="mm"
     inkscape:current-layer="svg8"
     inkscape:document-rotation="0"
     showgrid="false"
     inkscape:window-width="2000"
     inkscape:window-height="800"
     inkscape:window-x="1684"
     inkscape:window-y="24"
     inkscape:window-maximized="0" />
  <metadata
     id="metadata5">
    <rdf:RDF>
      <cc:Work
         rdf:about="">
        <dc:format>image/svg+xml</dc:format>
        <dc:type
           rdf:resource="http://purl.org/dc/dcmitype/StillImage" />
        <dc:title />
      </cc:Work>
    </rdf:RDF>
  </metadata>
  <g
     inkscape:label="Calque 1"
     inkscape:groupmode="layer"
     id="layer1">
    <circle
       style="fill:#000000;fill-opacity:1.0;stroke:#000000;stroke-width:0.264583;stroke-opacity:1"
       id="point1"
       cx="100"
       cy="150"
       r="62" />
    <circle
       style="fill:#ffffff;fill-opacity:1.0;stroke:#000000;stroke-width:0.264583;stroke-opacity:1"
       id="circle836"
       cx="100"
       cy="150"
       r="42" />
  <circle
     style="fill:none;stroke:#4ba1cd;stroke-width:0.264999"
     id="circle1"
     cx="100"
     cy="150"
     r="30"
     />
    <polygon points="100 150, 150 150, 100 150"/>
    <circle
       style="fill:#4ba1cd;fill-opacity:1;stroke:#fdfdfd;stroke-width:0.264583;stroke-opacity:1"
       id="path1019"
       cx="130."
       cy="150."
       r="8" />
    <circle
       style="fill:#4ba1cd;fill-opacity:1;stroke:#fdfdfd;stroke-width:0.264583;stroke-opacity:1"
       id="path1019-4"
       cx="118.7"
       cy="173.4"
       r="8" />
    <circle
       style="fill:#4ba1cd;fill-opacity:1;stroke:#fdfdfd;stroke-width:0.264583;stroke-opacity:1"
       id="path1019-0"
       cx="93.3"
       cy="179.2"
       r="8" />
    <circle
       style="fill:#4ba1cd;fill-opacity:1;stroke:#fdfdfd;stroke-width:0.264583;stroke-opacity:1"
       id="path1019-8"
       cx="72.9"
       cy="163.0"
       r="8" />
    <circle
       style="fill:#4ba1cd;fill-opacity:1;stroke:#fdfdfd;stroke-width:0.26285;stroke-opacity:1"
       id="path1019-1"
       cx="72.9"
       cy="136.9"
       r="8" />
    <circle
       style="fill:#4ba1cd;fill-opacity:1;stroke:#fdfdfd;stroke-width:0.264583;stroke-opacity:1"
       id="path1019-03"
       cx="93.3"
       cy="120.7"
       r="8" />
    <circle
       style="fill:#4ba1cd;fill-opacity:1;stroke:#fdfdfd;stroke-width:0.264583;stroke-opacity:1"
       id="path1019-11"
       cx="118.7"
       cy="126.5"
       r="8" />
  </g>
  <g
     id="g848"
     transform="rotate(138.,100,150)">
    <text
       xml:space="preserve"
       style="font-style:normal;font-weight:normal;font-size:13px;line-height:1.25;font-family:serif;fill:#ffffff;fill-opacity:1;stroke:none;stroke-width:0.3"
       id="text1087">     <textPath
   xlink:href="#path1157"
   id="textPath1160"><tspan
     id="tspan1085"
     style="stroke-width:0.3">Guide de bonnes pratiques</tspan></textPath></text>
    <circle
       style="fill:none;fill-opacity:1;stroke:none;stroke-width:0.264583;stroke-opacity:1"
       id="path1157"
       cx="100"
       cy="150"
       r="48" />
  </g>
<g>
  <circle
     style="fill:none;stroke:none;stroke-width:0.264583;stroke-opacity:1"
     id="path878"
     cx="-25"
     cy="-125"
     r="40"
     transform="matrix(1,-1,-1,-1,0,0)" />
  <text
     xml:space="preserve"
     style="font-style:normal;font-weight:normal;font-size:13px;line-height:1.25;font-family:serif;fill:#ffffff;fill-opacity:1;stroke:none;stroke-width:0.3"
     id="text882"
     transform="rotate(-175,100,150)"><textPath
       xlink:href="#path878"
       id="textPath884"><tspan
         id="tspan880"
         style="stroke-width:0.264583">Atelier Données</tspan></textPath></text>
  <circle
     style="fill:#ffffff;fill-opacity:1;stroke:none;stroke-width:0.264583;stroke-opacity:1"
     id="circle855"
     cx="148.72369"
     cy="172.46545"
     r="2" />
  <circle
     style="fill:#ffffff;fill-opacity:1;stroke:none;stroke-width:0.264583;stroke-opacity:1"
     id="circle31"
     cx="54.534538"
     cy="174.06908"
     r="2" />
</g>
<g transform="translate(83,132) scale(0.07)">
<path d="m248.429688 25.082031c39.289062 0 78.640624 11.152344 113.800781 32.253907 22.300781 13.417968 42.339843 30.28125 59.363281 49.972656l-58.738281-1.9375c-6.898438-.230469-12.675781 5.179687-12.902344 12.082031-.226563 6.898437 5.179687 12.679687 12.082031 12.902344l81.269532 2.683593c4.667968 1.921876 10.035156.847657 13.605468-2.726562 3.566406-3.574219 4.632813-8.941406 2.703125-13.609375l-2.675781-81.25c-.15625-6.902344-5.878906-12.371094-12.78125-12.21875-6.898438.15625-12.375 5.878906-12.21875 12.777344 0 .09375 0 .179687.007812.269531l1.546876 46.875c-17.195313-18.375-36.847657-34.285156-58.398438-47.265625-39.042969-23.425781-82.84375-35.8085938-126.664062-35.8085938-70 0-134.539063 28.8632808-181.703126 81.2695308-41.78125 46.425782-66.726562 108.914063-66.726562 167.160157 0 6.902343 5.59375 12.5 12.5 12.5s12.5-5.597657 12.5-12.5c0-52.238281 22.542969-108.476563 60.308594-150.433594 42.367187-47.066406 100.292968-72.996094 163.121094-72.996094zm0 0"/><path d="m487.5 236.011719c-6.90625 0-12.5 5.59375-12.5 12.5 0 52.234375-22.542969 108.476562-60.308594 150.4375-42.367187 47.066406-100.292968 72.988281-163.121094 72.988281-39.289062 0-78.640624-11.144531-113.800781-32.246094-22.300781-13.421875-42.339843-30.285156-59.363281-49.972656l58.738281 1.9375c6.898438.222656 12.675781-5.1875 12.902344-12.085938.226563-6.898437-5.179687-12.675781-12.082031-12.90625l-81.269532-2.679687c-4.667968-1.921875-10.035156-.84375-13.605468 2.726563-3.566406 3.574218-4.632813 8.9375-2.703125 13.605468l2.675781 81.25c.15625 6.90625 5.878906 12.378906 12.78125 12.222656 6.898438-.152343 12.375-5.875 12.21875-12.777343 0-.089844 0-.175781-.007812-.269531l-1.546876-46.875c17.195313 18.378906 36.847657 34.28125 58.398438 47.269531 39.042969 23.429687 82.84375 35.808593 126.664062 35.808593 70 0 134.539063-28.859374 181.703126-81.265624 41.78125-46.429688 66.726562-108.917969 66.726562-167.167969 0-6.90625-5.59375-12.5-12.5-12.5zm0 0"/></g>

</svg>
